<mxfile host="Electron" modified="2024-04-29T06:13:56.009Z" agent="Mozilla/5.0 (Macintosh; Intel Mac OS X 10_15_7) AppleWebKit/537.36 (KHTML, like Gecko) draw.io/24.2.5 Chrome/120.0.6099.109 Electron/28.1.0 Safari/537.36" etag="5H0Sk7EhurzCxsQa2ukx" version="24.2.5" type="device">
  <diagram name="第 1 页" id="ItCtmsEPnJw0ktkY6HqF">
    <mxGraphModel dx="1434" dy="907" grid="1" gridSize="10" guides="1" tooltips="1" connect="1" arrows="1" fold="1" page="1" pageScale="1" pageWidth="827" pageHeight="1169" math="0" shadow="0">
      <root>
        <mxCell id="0" />
        <mxCell id="1" parent="0" />
        <mxCell id="ivrFrOjGUGSboI4QSA3r-1" value="0" style="whiteSpace=wrap;html=1;aspect=fixed;fontSize=24;" parent="1" vertex="1">
          <mxGeometry y="40" width="60" height="60" as="geometry" />
        </mxCell>
        <mxCell id="ivrFrOjGUGSboI4QSA3r-8" style="edgeStyle=orthogonalEdgeStyle;rounded=0;orthogonalLoop=1;jettySize=auto;html=1;entryX=1;entryY=0.5;entryDx=0;entryDy=0;strokeWidth=3;shape=flexArrow;" parent="1" source="ivrFrOjGUGSboI4QSA3r-2" target="ivrFrOjGUGSboI4QSA3r-1" edge="1">
          <mxGeometry relative="1" as="geometry" />
        </mxCell>
        <mxCell id="ivrFrOjGUGSboI4QSA3r-2" value="1" style="whiteSpace=wrap;html=1;aspect=fixed;fontSize=24;" parent="1" vertex="1">
          <mxGeometry x="120" y="40" width="60" height="60" as="geometry" />
        </mxCell>
        <mxCell id="ivrFrOjGUGSboI4QSA3r-3" value="2" style="whiteSpace=wrap;html=1;aspect=fixed;fontSize=24;" parent="1" vertex="1">
          <mxGeometry x="180" y="40" width="60" height="60" as="geometry" />
        </mxCell>
        <mxCell id="ivrFrOjGUGSboI4QSA3r-4" value="3" style="whiteSpace=wrap;html=1;aspect=fixed;fontSize=24;" parent="1" vertex="1">
          <mxGeometry x="240" y="40" width="60" height="60" as="geometry" />
        </mxCell>
        <mxCell id="ivrFrOjGUGSboI4QSA3r-5" value="4" style="whiteSpace=wrap;html=1;aspect=fixed;fontSize=24;" parent="1" vertex="1">
          <mxGeometry x="300" y="40" width="60" height="60" as="geometry" />
        </mxCell>
        <mxCell id="ivrFrOjGUGSboI4QSA3r-6" value="5" style="whiteSpace=wrap;html=1;aspect=fixed;fontSize=24;" parent="1" vertex="1">
          <mxGeometry x="360" y="40" width="60" height="60" as="geometry" />
        </mxCell>
        <mxCell id="ivrFrOjGUGSboI4QSA3r-9" style="edgeStyle=orthogonalEdgeStyle;rounded=0;orthogonalLoop=1;jettySize=auto;html=1;shape=flexArrow;strokeWidth=3;exitX=0;exitY=0.5;exitDx=0;exitDy=0;exitPerimeter=0;" parent="1" source="ivrFrOjGUGSboI4QSA3r-7" target="ivrFrOjGUGSboI4QSA3r-6" edge="1">
          <mxGeometry relative="1" as="geometry">
            <mxPoint x="500" y="70" as="sourcePoint" />
          </mxGeometry>
        </mxCell>
        <mxCell id="ivrFrOjGUGSboI4QSA3r-7" value="6" style="whiteSpace=wrap;html=1;aspect=fixed;fontSize=24;" parent="1" vertex="1">
          <mxGeometry x="480" y="40" width="60" height="60" as="geometry" />
        </mxCell>
        <mxCell id="ivrFrOjGUGSboI4QSA3r-10" value="&lt;font style=&quot;font-size: 24px;&quot;&gt;dequeue&lt;/font&gt;" style="text;html=1;strokeColor=none;fillColor=none;align=center;verticalAlign=middle;whiteSpace=wrap;rounded=0;" parent="1" vertex="1">
          <mxGeometry x="60" y="110" width="60" height="30" as="geometry" />
        </mxCell>
        <mxCell id="ivrFrOjGUGSboI4QSA3r-11" value="&lt;font style=&quot;font-size: 24px;&quot;&gt;enqueue&lt;/font&gt;" style="text;html=1;strokeColor=none;fillColor=none;align=center;verticalAlign=middle;whiteSpace=wrap;rounded=0;" parent="1" vertex="1">
          <mxGeometry x="420" y="110" width="60" height="30" as="geometry" />
        </mxCell>
      </root>
    </mxGraphModel>
  </diagram>
</mxfile>
